<?xml version="1.0" encoding="utf-8"?>
<!-- Generator: Adobe Illustrator 26.0.3, SVG Export Plug-In . SVG Version: 6.00 Build 0)  -->
<svg version="1.0" id="katman_1" xmlns="http://www.w3.org/2000/svg" xmlns:xlink="http://www.w3.org/1999/xlink" x="0px" y="0px"
	 viewBox="0 0 600 450" style="enable-background:new 0 0 600 450;" xml:space="preserve">
<style type="text/css">
	.st0{clip-path:url(#SVGID_00000065065369018915810370000000411005457070970784_);}
	.st1{fill:#1A4192;}
</style>
<g>
	<defs>
		<rect id="SVGID_1_" x="108.1" y="74.1" width="384" height="302.6"/>
	</defs>
	<clipPath id="SVGID_00000057838678577173034080000011948741274908804770_">
		<use xlink:href="#SVGID_1_"  style="overflow:visible;"/>
	</clipPath>
	<g style="clip-path:url(#SVGID_00000057838678577173034080000011948741274908804770_);">
		<path class="st1" d="M300.1,104c-87.8,0-157.2,52.4-161,115.8c0,0,0,1.2-0.1,2.7v0l27.2-6.7l-1.9,10.3l17.2-3.9v-37.7l-8.5,2.1
			l-1,0.3v-7.4l0.6-0.2l53.1-13.5c3.4-0.9,7-1.3,10.4-1.3c12.6,0,20.2,5.8,20.8,15.9c0.1,0.7,0.1,1.5,0,2.2l33.6-8.2l1.1-0.3v95.9
			h9.3v5.9h-39.3v-5.9h8.5v-83.5l-14.6,3.4c-2.9,7.7-9.9,14.6-20.9,20.5c1.5-0.1,3-0.2,4.5-0.2c16,0,27.2,9.7,27.2,23.5
			c0,18.5-17.8,37.8-38.3,41.3c-6.1,1-11.6,1-16.9,1h-38.1v-6.2l8.3,0.2l0.1-37.2l-27,5.3l1.9-11.2l-17.4,2.9
			c3.3,63.8,73,116.6,161.1,116.6c82.4,0,148.6-46.1,159.6-104.3l-20.2,8.3l-1,0.4l0.7-5.7l0.6-5.2l-12.4,3.3l-35.4,9.5v9.1
			c0,6.5,3.2,9.3,10.6,9.3c9.7,0,17-4.2,20.8-11.9l6.7-2.8c-3.6,13-13.7,20.2-28.5,20.2c-23.9,0-34.5-15.5-34.5-31
			c0-20.6,17.7-31.7,34.2-31.7c12.8,0,23.9,7.7,27.4,18.7l19.5-5.6l-1.3,10.8l13.8-3.9l0-0.2c0.3-3,0.4-5.9,0.4-8.9
			C461.3,159.5,390.4,104,300.1,104z M372.5,268.9v7.2l-30.9,1.5v-9c-4.2,6.3-11.5,9.7-20.8,9.7c-8.7,0-13.7-2-16.3-6.4
			c-2.3-4-2.3-9.7-2.3-16.9v-27.5l-6,1.5v-8l28.2-7.1v1.7l0.1,43.6c0,4.4,0,7.9,1.4,9.4c0.7,0.6,1.7,1,3,1
			c6.9,0,12.7-10.6,12.7-14.6v-27.5l-5,1.3v-7.9l27.3-7v55.4L372.5,268.9z M300.1,74.1c-105.9,0-192,67.9-192,151.3
			c0,83.4,86.1,151.3,192,151.3c105.9,0,192-67.9,192-151.3C492.1,141.9,406,74.1,300.1,74.1z M300.1,354.9
			c-93.3,0-169.1-58.1-169.1-129.5c0-71.4,75.9-129.5,169.1-129.5c93.3,0,169.1,58.1,169.1,129.5
			C469.3,296.8,393.4,354.9,300.1,354.9z M392,227v20l16.9-4.3v-16.3c0-4.3-4.9-5.2-9.1-5.2C396.3,221.2,392,222.2,392,227z
			 M207.7,269c1.6-0.2,3.1-0.4,4.7-0.9c15.3-3.9,27.6-17.9,27.6-31.1c0-10.6-7.8-17.8-19.5-17.8c-2.5,0-5.1,0.4-7.7,1
			c-1.7,0.5-3.4,1-5.1,1.7V269z M231.1,189.7c0-8.1-6.7-13.6-16.6-13.6c-2.2,0-4.5,0.3-6.8,0.8l0,38.1
			C220.7,211.1,231.1,200,231.1,189.7z"/>
	</g>
</g>
</svg>
